<svg xmlns="http://www.w3.org/2000/svg" viewBox="0 0 1000 1000" role="img" aria-label="MANA recovery potion">
  <defs><clipPath id="mana-small-cavity"><path d="M402 120H598C628 120 652 144 652 174C652 201 632 224 605 228V318C605 354 623 381 657 399C775 462 840 566 840 682C840 825 724 930 580 930H420C276 930 160 825 160 682C160 566 225 462 343 399C377 381 395 354 395 318V228C368 224 348 201 348 174C348 144 372 120 402 120Z"/></clipPath></defs>
  <path clip-path="url(#mana-small-cavity)" d="M120 610C260 560 343 633 445 619C559 603 651 558 880 620V1000H120Z" fill="#5F96F5"/>
  <path d="M402 120H598C628 120 652 144 652 174C652 201 632 224 605 228V318C605 354 623 381 657 399C775 462 840 566 840 682C840 825 724 930 580 930H420C276 930 160 825 160 682C160 566 225 462 343 399C377 381 395 354 395 318V228C368 224 348 201 348 174C348 144 372 120 402 120Z" fill="none" stroke="#5F96F5" stroke-width="48" stroke-linecap="round" stroke-linejoin="round"/>
  <path d="M536 452C488 488 480 526 500 559C520 592 555 610 560 650C568 706 516 748 510 800C507 827 518 848 530 862C520 832 525 803 542 778C570 737 588 700 579 650C570 604 530 581 516 548C502 514 510 482 536 452Z" fill="#FFFFFF"/>
</svg>
